<svg xmlns="http://www.w3.org/2000/svg" xmlns:xlink="http://www.w3.org/1999/xlink" width="548" height="98" viewBox="0 0 548 98">
  <defs>
    <polygon id="logo-desktop-a" points="0 97.301 547.333 97.301 547.333 0 0 0"/>
  </defs>
  <g fill="none" fill-rule="evenodd">
    <path fill="#1D3765" d="M84.1021 77.3731C83.9471 77.2191 83.6651 77.0081 83.2571 76.7431 82.8491 76.4781 82.3521 76.2191 81.7671 75.9651 81.1811 75.7121 80.5461 75.4961 79.8621 75.3191 79.1781 75.1431 78.4821 75.0541 77.7751 75.0541 76.5171 75.0541 75.5781 75.2861 74.9601 75.7491 74.3411 76.2141 74.0331 76.8651 74.0331 77.7041 74.0331 78.1901 74.1481 78.5941 74.3801 78.9131 74.6121 79.2331 74.9481 79.5151 75.3911 79.7581 75.8321 80.0001 76.3891 80.2221 77.0631 80.4201 77.7371 80.6191 78.5151 80.8281 79.3981 81.0501 80.5461 81.3581 81.5901 81.6901 82.5291 82.0441 83.4671 82.3961 84.2621 82.8391 84.9141 83.3681 85.5641 83.8981 86.0671 84.5331 86.4201 85.2721 86.7741 86.0141 86.9511 86.9241 86.9511 88.0061 86.9511 89.2651 86.7131 90.3411 86.2391 91.2341 85.7631 92.1291 85.1231 92.8531 84.3171 93.4051 83.5111 93.9571 82.5831 94.3601 81.5351 94.6131 80.4851 94.8671 79.3871 94.9941 78.2391 94.9941 76.4721 94.9941 74.7271 94.7291 73.0061 94.1991 71.2831 93.6701 69.7381 92.9191 68.3681 91.9471L70.3891 88.0061C70.5871 88.2031 70.9461 88.4641 71.4651 88.7831 71.9841 89.1041 72.5971 89.4251 73.3041 89.7441 74.0101 90.0641 74.7941 90.3351 75.6551 90.5561 76.5171 90.7771 77.4001 90.8871 78.3051 90.8871 80.8221 90.8871 82.0811 90.0811 82.0811 88.4701 82.0811 87.9611 81.9371 87.5301 81.6501 87.1781 81.3641 86.8241 80.9561 86.5151 80.4261 86.2501 79.8951 85.9851 79.2541 85.7411 78.5041 85.5211 77.7531 85.3011 76.9151 85.0571 75.9871 84.7921 74.8611 84.4831 73.8831 84.1461 73.0551 83.7821 72.2271 83.4171 71.5371 82.9861 70.9851 82.4901 70.4331 81.9931 70.0191 81.4201 69.7431 80.7691 69.4661 80.1171 69.3291 79.3381 69.3291 78.4331 69.3291 77.2411 69.5491 76.1801 69.9921 75.2531 70.4331 74.3251 71.0451 73.5531 71.8301 72.9351 72.6131 72.3161 73.5241 71.8471 74.5621 71.5261 75.6001 71.2061 76.7161 71.0471 77.9081 71.0471 79.5641 71.0471 81.0881 71.3061 82.4781 71.8241 83.8701 72.3441 85.0841 72.9571 86.1231 73.6631L84.1021 77.3731zM99.0073 90.8535C100.0893 90.8535 101.0003 90.6335 101.7393 90.1915 102.4793 89.7495 103.0753 89.1765 103.5283 88.4695 103.9803 87.7625 104.3013 86.9515 104.4893 86.0345 104.6763 85.1185 104.7703 84.1745 104.7703 83.2025L104.7703 71.2115 109.3083 71.2115 109.3083 83.2025C109.3083 84.8145 109.1143 86.3275 108.7293 87.7405 108.3423 89.1545 107.7353 90.3905 106.9073 91.4505 106.0793 92.5095 105.0133 93.3495 103.7103 93.9665 102.4073 94.5855 100.8503 94.8955 99.0403 94.8955 97.1633 94.8955 95.5673 94.5695 94.2543 93.9175 92.9393 93.2675 91.8743 92.4055 91.0573 91.3345 90.2403 90.2625 89.6503 89.0205 89.2853 87.6085 88.9213 86.1945 88.7383 84.7265 88.7383 83.2025L88.7383 71.2115 93.3103 71.2115 93.3103 83.2025C93.3103 84.1965 93.4033 85.1515 93.5913 86.0675 93.7783 86.9835 94.0993 87.7945 94.5523 88.5015 95.0043 89.2085 95.5953 89.7775 96.3243 90.2075 97.0533 90.6385 97.9463 90.8535 99.0073 90.8535M126.5986 77.3731C126.4436 77.2191 126.1616 77.0081 125.7546 76.7431 125.3456 76.4781 124.8486 76.2191 124.2636 75.9651 123.6786 75.7121 123.0426 75.4961 122.3586 75.3191 121.6746 75.1431 120.9786 75.0541 120.2726 75.0541 119.0136 75.0541 118.0746 75.2861 117.4566 75.7491 116.8386 76.2141 116.5296 76.8651 116.5296 77.7041 116.5296 78.1901 116.6446 78.5941 116.8766 78.9131 117.1086 79.2331 117.4446 79.5151 117.8876 79.7581 118.3286 80.0001 118.8856 80.2221 119.5596 80.4201 120.2336 80.6191 121.0116 80.8281 121.8956 81.0501 123.0426 81.3581 124.0866 81.6901 125.0256 82.0441 125.9636 82.3961 126.7586 82.8391 127.4106 83.3681 128.0616 83.8981 128.5636 84.5331 128.9166 85.2721 129.2706 86.0141 129.4476 86.9241 129.4476 88.0061 129.4476 89.2651 129.2096 90.3411 128.7356 91.2341 128.2606 92.1291 127.6196 92.8531 126.8136 93.4051 126.0076 93.9571 125.0796 94.3601 124.0316 94.6131 122.9826 94.8671 121.8836 94.9941 120.7356 94.9941 118.9686 94.9941 117.2246 94.7291 115.5026 94.1991 113.7796 93.6701 112.2346 92.9191 110.8656 91.9471L112.8856 88.0061C113.0836 88.2031 113.4426 88.4641 113.9626 88.7831 114.4806 89.1041 115.0936 89.4251 115.8006 89.7441 116.5076 90.0641 117.2906 90.3351 118.1516 90.5561 119.0136 90.7771 119.8966 90.8871 120.8026 90.8871 123.3196 90.8871 124.5786 90.0811 124.5786 88.4701 124.5786 87.9611 124.4346 87.5301 124.1476 87.1781 123.8606 86.8241 123.4526 86.5151 122.9226 86.2501 122.3916 85.9851 121.7516 85.7411 121.0006 85.5211 120.2496 85.3011 119.4116 85.0571 118.4836 84.7921 117.3576 84.4831 116.3796 84.1461 115.5516 83.7821 114.7236 83.4171 114.0336 82.9861 113.4816 82.4901 112.9296 81.9931 112.5156 81.4201 112.2396 80.7691 111.9636 80.1171 111.8256 79.3381 111.8256 78.4331 111.8256 77.2411 112.0456 76.1801 112.4886 75.2531 112.9296 74.3251 113.5426 73.5531 114.3266 72.9351 115.1106 72.3161 116.0216 71.8471 117.0586 71.5261 118.0966 71.2061 119.2126 71.0471 120.4046 71.0471 122.0606 71.0471 123.5846 71.3061 124.9756 71.8241 126.3676 72.3441 127.5806 72.9571 128.6196 73.6631L126.5986 77.3731z"/>
    <polygon fill="#1D3765" points="148.99 75.22 141.471 75.22 141.471 94.73 136.933 94.73 136.933 75.22 129.414 75.22 129.414 71.212 148.99 71.212"/>
    <path fill="#1D3765" d="M160.2187,85.6533 L156.9727,76.4133 L153.5937,85.6533 L160.2187,85.6533 Z M154.9517,71.2113 L158.9927,71.2113 L167.9367,94.7293 L163.2327,94.7293 L161.0467,88.8673 L152.8327,88.8673 L150.6797,94.7293 L145.9757,94.7293 L154.9517,71.2113 Z"/>
    <mask id="logo-desktop-b" fill="#fff">
      <use xlink:href="#logo-desktop-a"/>
    </mask>
    <polygon fill="#1D3765" points="169.195 94.73 173.766 94.73 173.766 71.212 169.195 71.212" mask="url(#logo-desktop-b)"/>
    <polygon fill="#1D3765" points="181.252 79.658 181.252 94.729 176.681 94.729 176.681 71.211 180.225 71.211 192.481 86.647 192.481 71.245 197.051 71.245 197.051 94.729 193.342 94.729" mask="url(#logo-desktop-b)"/>
    <path fill="#1D3765" d="M212.5854 85.6533L209.3394 76.4133 205.9604 85.6533 212.5854 85.6533zM207.3184 71.2113L211.3594 71.2113 220.3034 94.7293 215.5994 94.7293 213.4134 88.8673 205.1994 88.8673 203.0464 94.7293 198.3424 94.7293 207.3184 71.2113zM235.9048 87.8067C235.9048 87.3867 235.8318 86.9837 235.6888 86.5977 235.5448 86.2107 235.3518 85.8737 235.1098 85.5877 234.8648 85.3007 234.5808 85.0737 234.2488 84.9097 233.9168 84.7437 233.5518 84.6597 233.1548 84.6597L226.1328 84.6597 226.1328 90.8537 232.9248 90.8537C233.3428 90.8537 233.7358 90.7777 234.0978 90.6217 234.4628 90.4677 234.7778 90.2527 235.0438 89.9757 235.3068 89.7017 235.5168 89.3747 235.6718 88.9987 235.8268 88.6227 235.9048 88.2257 235.9048 87.8067zM226.1328 75.1197L226.1328 81.0497 232.2278 81.0497C232.9998 81.0497 233.6578 80.7857 234.1988 80.2547 234.7398 79.7257 235.0108 78.9957 235.0108 78.0697 235.0108 77.1627 234.7608 76.4457 234.2648 75.9147 233.7688 75.3857 233.1548 75.1197 232.4258 75.1197L226.1328 75.1197zM240.5088 88.6677C240.5088 89.6617 240.3088 90.5347 239.9108 91.2847 239.5158 92.0357 238.9678 92.6647 238.2738 93.1717 237.5778 93.6817 236.7708 94.0677 235.8558 94.3317 234.9378 94.5967 233.9618 94.7297 232.9248 94.7297L221.5618 94.7297 221.5618 71.2117 234.1498 71.2117C234.9668 71.2117 235.7048 71.3897 236.3678 71.7417 237.0318 72.0947 237.5938 72.5537 238.0568 73.1167 238.5208 73.6797 238.8808 74.3207 239.1348 75.0377 239.3858 75.7547 239.5158 76.4787 239.5158 77.2067 239.5158 78.3557 239.2268 79.4327 238.6528 80.4367 238.0788 81.4417 237.2408 82.1867 236.1348 82.6727 237.4838 83.0707 238.5488 83.7827 239.3328 84.8087 240.1158 85.8357 240.5088 87.1217 240.5088 88.6677z" mask="url(#logo-desktop-b)"/>
    <polygon fill="#1D3765" points="242.761 94.73 242.761 71.212 247.332 71.212 247.332 90.722 259.323 90.722 259.323 94.73" mask="url(#logo-desktop-b)"/>
    <polygon fill="#1D3765" points="277.11 90.722 277.11 94.73 260.78 94.73 260.78 71.212 276.811 71.212 276.811 75.22 265.351 75.22 265.351 80.884 275.256 80.884 275.256 84.594 265.351 84.594 265.351 90.722" mask="url(#logo-desktop-b)"/>
    <path fill="#1D3765" d="M301.52,82.9375 C301.52,81.8115 301.365,80.7735 301.057,79.8245 C300.748,78.8755 300.294,78.0575 299.698,77.3735 C299.102,76.6885 298.368,76.1595 297.495,75.7825 C296.624,75.4075 295.635,75.2195 294.531,75.2195 L290.556,75.2195 L290.556,90.7215 L294.531,90.7215 C295.658,90.7215 296.657,90.5235 297.529,90.1255 C298.401,89.7275 299.13,89.1805 299.714,88.4855 C300.299,87.7895 300.748,86.9675 301.057,86.0175 C301.365,85.0685 301.52,84.0415 301.52,82.9375 Z M285.986,94.7295 L285.986,71.2115 L294.531,71.2115 C296.452,71.2115 298.136,71.5215 299.583,72.1395 C301.029,72.7585 302.238,73.5965 303.209,74.6565 C304.181,75.7165 304.909,76.9585 305.396,78.3825 C305.88,79.8075 306.124,81.3265 306.124,82.9375 C306.124,84.7265 305.854,86.3435 305.312,87.7895 C304.771,89.2365 303.993,90.4725 302.978,91.4995 C301.961,92.5265 300.742,93.3215 299.317,93.8845 C297.893,94.4485 296.297,94.7295 294.531,94.7295 L285.986,94.7295 Z" mask="url(#logo-desktop-b)"/>
    <polygon fill="#1D3765" points="324.707 90.722 324.707 94.73 308.377 94.73 308.377 71.212 324.408 71.212 324.408 75.22 312.947 75.22 312.947 80.884 322.853 80.884 322.853 84.594 312.947 84.594 312.947 90.722" mask="url(#logo-desktop-b)"/>
    <polygon fill="#1D3765" points="330.04 71.211 336.399 88.999 342.693 71.211 347.496 71.211 338.321 94.729 334.477 94.729 325.236 71.211" mask="url(#logo-desktop-b)"/>
    <polygon fill="#1D3765" points="365.018 90.722 365.018 94.73 348.688 94.73 348.688 71.212 364.719 71.212 364.719 75.22 353.259 75.22 353.259 80.884 363.163 80.884 363.163 84.594 353.259 84.594 353.259 90.722" mask="url(#logo-desktop-b)"/>
    <polygon fill="#1D3765" points="367.269 94.73 367.269 71.212 371.84 71.212 371.84 90.722 383.831 90.722 383.831 94.73" mask="url(#logo-desktop-b)"/>
    <path fill="#1D3765" d="M387.0103 82.9707C387.0103 83.9867 387.1643 84.9687 387.4753 85.9177 387.7823 86.8677 388.2303 87.7067 388.8163 88.4367 389.4003 89.1637 390.1183 89.7497 390.9683 90.1917 391.8193 90.6337 392.7843 90.8537 393.8663 90.8537 394.9713 90.8537 395.9483 90.6277 396.7993 90.1747 397.6483 89.7217 398.3653 89.1207 398.9513 88.3687 399.5353 87.6187 399.9783 86.7747 400.2763 85.8357 400.5743 84.8977 400.7243 83.9437 400.7243 82.9707 400.7243 81.9547 400.5633 80.9717 400.2423 80.0227 399.9233 79.0737 399.4703 78.2337 398.8853 77.5057 398.3003 76.7767 397.5823 76.1967 396.7323 75.7657 395.8813 75.3347 394.9273 75.1197 393.8663 75.1197 392.7633 75.1197 391.7803 75.3467 390.9183 75.7997 390.0583 76.2527 389.3403 76.8477 388.7663 77.5877 388.1913 78.3277 387.7563 79.1667 387.4583 80.1057 387.1593 81.0447 387.0103 81.9987 387.0103 82.9707M393.8333 94.8957C392.1123 94.8957 390.5493 94.5587 389.1473 93.8847 387.7443 93.2107 386.5403 92.3177 385.5363 91.2017 384.5313 90.0867 383.7533 88.8117 383.2013 87.3747 382.6493 85.9407 382.3733 84.4727 382.3733 82.9707 382.3733 81.4027 382.6663 79.9017 383.2503 78.4647 383.8353 77.0307 384.6423 75.7607 385.6693 74.6567 386.6963 73.5537 387.9153 72.6747 389.3293 72.0227 390.7423 71.3727 392.2783 71.0467 393.9333 71.0467 395.6333 71.0467 397.1853 71.3937 398.5863 72.0897 399.9893 72.7847 401.1883 73.6957 402.1813 74.8227 403.1743 75.9487 403.9473 77.2297 404.4993 78.6637 405.0513 80.1007 405.3273 81.5577 405.3273 83.0367 405.3273 84.6057 405.0403 86.1007 404.4673 87.5247 403.8923 88.9497 403.0963 90.2077 402.0813 91.3007 401.0653 92.3947 399.8513 93.2677 398.4393 93.9177 397.0253 94.5697 395.4893 94.8957 393.8333 94.8957M412.0854 82.8389L417.3854 82.8389C418.2244 82.8389 418.9254 82.4959 419.4884 81.8119 420.0514 81.1269 420.3334 80.1989 420.3334 79.0279 420.3334 78.4329 420.2454 77.8979 420.0674 77.4219 419.8914 76.9479 419.6594 76.5449 419.3724 76.2139 419.0854 75.8819 418.7474 75.6339 418.3614 75.4679 417.9764 75.3029 417.5834 75.2199 417.1874 75.2199L412.0854 75.2199 412.0854 82.8389zM407.5144 94.7299L407.5144 71.2119 417.4844 71.2119C418.5664 71.2119 419.5644 71.4389 420.4814 71.8909 421.3984 72.3439 422.1884 72.9409 422.8504 73.6789 423.5134 74.4199 424.0314 75.2589 424.4064 76.1959 424.7814 77.1359 424.9704 78.0789 424.9704 79.0279 424.9704 80.0229 424.7934 80.9879 424.4404 81.9269 424.0864 82.8649 423.5904 83.6989 422.9494 84.4279 422.3094 85.1569 421.5364 85.7409 420.6314 86.1839 419.7254 86.6249 418.7314 86.8459 417.6494 86.8459L412.0854 86.8459 412.0854 94.7299 407.5144 94.7299z" mask="url(#logo-desktop-b)"/>
    <polygon fill="#1D3765" points="446.002 94.73 446.002 79.162 439.941 90.754 437.457 90.754 431.396 79.162 431.396 94.73 426.824 94.73 426.824 71.212 431.728 71.212 438.683 84.594 445.705 71.212 450.574 71.212 450.574 94.73" mask="url(#logo-desktop-b)"/>
    <polygon fill="#1D3765" points="469.818 90.722 469.818 94.73 453.489 94.73 453.489 71.212 469.52 71.212 469.52 75.22 458.059 75.22 458.059 80.884 467.964 80.884 467.964 84.594 458.059 84.594 458.059 90.722" mask="url(#logo-desktop-b)"/>
    <polygon fill="#1D3765" points="476.642 79.658 476.642 94.729 472.071 94.729 472.071 71.211 475.615 71.211 487.871 86.647 487.871 71.245 492.441 71.245 492.441 94.729 488.731 94.729" mask="url(#logo-desktop-b)"/>
    <polygon fill="#1D3765" points="513.607 75.22 506.086 75.22 506.086 94.73 501.55 94.73 501.55 75.22 494.03 75.22 494.03 71.212 513.607 71.212" mask="url(#logo-desktop-b)"/>
    <polygon fill="#01AED8" points="521.065 72.576 547.149 72.576 547.149 77.61 536.018 77.61 536.018 89.439 547.149 89.439 547.149 94.508 521.065 94.508 521.065 89.439 531.609 89.439 531.609 77.61 521.065 77.61" mask="url(#logo-desktop-b)"/>
    <path fill="#01AED8" d="M542.8501 57.5879C542.8501 56.3879 542.6061 55.3779 542.1161 54.5579 541.6261 53.7369 540.9901 53.0759 540.2051 52.5739 539.4211 52.0729 538.5221 51.7159 537.5051 51.5079 536.4901 51.3009 535.4431 51.1959 534.3641 51.1959L521.0651 51.1959 521.0651 46.1629 534.3641 46.1629C536.1521 46.1629 537.8301 46.3789 539.3971 46.8069 540.9651 47.2349 542.3361 47.9089 543.5111 48.8259 544.6871 49.7449 545.6191 50.9269 546.3041 52.3719 546.9901 53.8169 547.3321 55.5439 547.3321 57.5519 547.3321 59.6329 546.9711 61.4019 546.2481 62.8599 545.5271 64.3169 544.5721 65.4999 543.3831 66.4049 542.1961 67.3109 540.8181 67.9659 539.2501 68.3709 537.6831 68.7749 536.0541 68.9769 534.3641 68.9769L521.0651 68.9769 521.0651 63.9069 534.3641 63.9069C535.4661 63.9069 536.5261 63.8029 537.5421 63.5949 538.5581 63.3869 539.4581 63.0319 540.2421 62.5289 541.0261 62.0269 541.6571 61.3719 542.1341 60.5639 542.6121 59.7559 542.8501 58.7639 542.8501 57.5879M539.4712 26.6187C539.0052 26.6187 538.5582 26.6987 538.1302 26.8577 537.7002 27.0167 537.3272 27.2317 537.0092 27.5007 536.6922 27.7697 536.4402 28.0887 536.2562 28.4557 536.0732 28.8227 535.9802 29.2277 535.9802 29.6687L535.9802 37.4567 542.8502 37.4567 542.8502 29.9247C542.8502 29.4607 542.7642 29.0247 542.5932 28.6217 542.4222 28.2167 542.1842 27.8677 541.8762 27.5737 541.5712 27.2807 541.2092 27.0477 540.7932 26.8757 540.3762 26.7057 539.9362 26.6187 539.4712 26.6187zM525.4012 37.4567L531.9762 37.4567 531.9762 30.6967C531.9762 29.8407 531.6822 29.1107 531.0952 28.5117 530.5072 27.9107 529.6992 27.6117 528.6692 27.6117 527.6662 27.6117 526.8692 27.8867 526.2822 28.4367 525.6952 28.9887 525.4012 29.6687 525.4012 30.4767L525.4012 37.4567zM540.4262 21.5127C541.5292 21.5127 542.4952 21.7337 543.3282 22.1737 544.1602 22.6147 544.8592 23.2207 545.4222 23.9917 545.9852 24.7637 546.4132 25.6577 546.7072 26.6737 547.0012 27.6897 547.1492 28.7747 547.1492 29.9247L547.1492 42.5257 521.0652 42.5257 521.0652 28.5667C521.0652 27.6607 521.2612 26.8397 521.6532 26.1047 522.0452 25.3687 522.5532 24.7457 523.1782 24.2307 523.8022 23.7167 524.5132 23.3197 525.3092 23.0367 526.1042 22.7557 526.9072 22.6147 527.7142 22.6147 528.9892 22.6147 530.1822 22.9327 531.2962 23.5697 532.4112 24.2067 533.2382 25.1377 533.7772 26.3627 534.2172 24.8687 535.0072 23.6857 536.1462 22.8167 537.2842 21.9477 538.7112 21.5127 540.4262 21.5127z" mask="url(#logo-desktop-b)"/>
    <polygon fill="#1D3765" points="119.835 22.572 108.434 58.873 101.172 58.873 91.867 34.075 82.767 58.873 75.455 58.873 64.105 22.572 72.03 22.572 79.801 48.341 88.032 22.572 95.651 22.572 104.138 48.29 111.807 22.572" mask="url(#logo-desktop-b)"/>
    <path fill="#1D3765" d="M135.3267,44.8638 L130.3157,30.5988 L125.1017,44.8638 L135.3267,44.8638 Z M127.1977,22.5718 L133.4347,22.5718 L147.2397,58.8728 L139.9797,58.8728 L136.6047,49.8238 L123.9257,49.8238 L120.6017,58.8728 L113.3417,58.8728 L127.1977,22.5718 Z" mask="url(#logo-desktop-b)"/>
    <polygon fill="#1D3765" points="170.708 28.759 159.102 28.759 159.102 58.873 152.098 58.873 152.098 28.759 140.491 28.759 140.491 22.572 170.708 22.572" mask="url(#logo-desktop-b)"/>
    <polygon fill="#1D3765" points="198.368 52.687 198.368 58.873 173.162 58.873 173.162 22.573 197.908 22.573 197.908 28.759 180.217 28.759 180.217 37.501 195.505 37.501 195.505 43.227 180.217 43.227 180.217 52.687" mask="url(#logo-desktop-b)"/>
    <path fill="#1D3765" d="M207.8765 40.5181L216.7215 40.5181C217.3685 40.5181 217.9745 40.3651 218.5365 40.0581 219.0995 39.7511 219.5845 39.3341 219.9945 38.8051 220.4025 38.2771 220.7275 37.6551 220.9655 36.9391 221.2035 36.2231 221.3235 35.4561 221.3235 34.6381 221.3235 33.7871 221.1875 33.0021 220.9145 32.2861 220.6415 31.5701 220.2755 30.9491 219.8155 30.4201 219.3545 29.8921 218.8265 29.4831 218.2305 29.1931 217.6335 28.9041 217.0285 28.7591 216.4155 28.7591L207.8765 28.7591 207.8765 40.5181zM200.8215 58.8731L200.8215 22.5721 216.8755 22.5721C218.5445 22.5721 220.0875 22.9221 221.5015 23.6201 222.9165 24.3191 224.1355 25.2391 225.1575 26.3811 226.1805 27.5231 226.9805 28.8191 227.5615 30.2671 228.1395 31.7161 228.4305 33.1731 228.4305 34.6381 228.4305 36.9901 227.8425 39.1301 226.6665 41.0551 225.4895 42.9811 223.8975 44.3711 221.8855 45.2221L230.1685 58.8731 222.2435 58.8731 214.8305 46.7051 207.8765 46.7051 207.8765 58.8731 200.8215 58.8731zM264.6284 32.0816C264.3894 31.8436 263.9554 31.5196 263.3244 31.1106 262.6934 30.7016 261.9264 30.3016 261.0244 29.9096 260.1204 29.5176 259.1394 29.1856 258.0834 28.9126 257.0274 28.6396 255.9534 28.5026 254.8634 28.5026 252.9204 28.5026 251.4704 28.8606 250.5164 29.5766 249.5634 30.2926 249.0854 31.2986 249.0854 32.5936 249.0854 33.3436 249.2644 33.9656 249.6234 34.4596 249.9804 34.9546 250.4994 35.3886 251.1814 35.7636 251.8634 36.1386 252.7234 36.4786 253.7634 36.7856 254.8034 37.0926 256.0034 37.4166 257.3684 37.7566 259.1394 38.2346 260.7504 38.7466 262.1994 39.2906 263.6484 39.8366 264.8754 40.5186 265.8804 41.3366 266.8864 42.1546 267.6614 43.1346 268.2074 44.2756 268.7524 45.4186 269.0244 46.8246 269.0244 48.4946 269.0244 50.4366 268.6594 52.0986 267.9264 53.4786 267.1924 54.8596 266.2044 55.9766 264.9614 56.8286 263.7164 57.6806 262.2844 58.3026 260.6654 58.6946 259.0464 59.0856 257.3504 59.2816 255.5784 59.2816 252.8514 59.2816 250.1594 58.8736 247.5014 58.0556 244.8414 57.2366 242.4564 56.0796 240.3424 54.5786L243.4614 48.4946C243.7684 48.8006 244.3214 49.2026 245.1224 49.6956 245.9234 50.1896 246.8694 50.6846 247.9614 51.1786 249.0514 51.6726 250.2614 52.0906 251.5904 52.4306 252.9204 52.7716 254.2834 52.9426 255.6804 52.9426 259.5664 52.9426 261.5104 51.6986 261.5104 49.2096 261.5104 48.4266 261.2874 47.7616 260.8454 47.2156 260.4014 46.6716 259.7714 46.1926 258.9524 45.7846 258.1354 45.3746 257.1464 45.0006 255.9874 44.6596 254.8294 44.3196 253.5334 43.9436 252.1024 43.5346 250.3634 43.0576 248.8564 42.5386 247.5774 41.9756 246.2984 41.4126 245.2324 40.7486 244.3814 39.9816 243.5294 39.2146 242.8904 38.3286 242.4644 37.3226 242.0374 36.3176 241.8254 35.1156 241.8254 33.7176 241.8254 31.8776 242.1654 30.2416 242.8474 28.8106 243.5294 27.3786 244.4754 26.1856 245.6864 25.2306 246.8954 24.2766 248.3004 23.5516 249.9034 23.0586 251.5044 22.5636 253.2274 22.3166 255.0674 22.3166 257.6234 22.3166 259.9764 22.7176 262.1234 23.5186 264.2704 24.3186 266.1444 25.2656 267.7474 26.3556L264.6284 32.0816z" mask="url(#logo-desktop-b)"/>
    <polygon fill="#1D3765" points="296.481 52.687 296.481 58.873 271.275 58.873 271.275 22.573 296.021 22.573 296.021 28.759 278.331 28.759 278.331 37.501 293.618 37.501 293.618 43.227 278.331 43.227 278.331 52.687" mask="url(#logo-desktop-b)"/>
    <path fill="#1D3765" d="M296.9917 40.4673C296.9917 38.2513 297.3927 36.0623 298.1937 33.8973 298.9937 31.7333 300.1617 29.7983 301.6957 28.0943 303.2287 26.3893 305.1037 25.0093 307.3207 23.9523 309.5357 22.8963 312.0567 22.3673 314.8877 22.3673 318.2277 22.3673 321.1157 23.1013 323.5537 24.5663 325.9897 26.0323 327.8047 27.9403 328.9987 30.2923L323.5787 34.0253C323.1007 33.0023 322.5217 32.1413 321.8417 31.4433 321.1577 30.7443 320.4267 30.1903 319.6407 29.7803 318.8567 29.3723 318.0397 29.0733 317.1877 28.8863 316.3357 28.6993 315.5017 28.6053 314.6817 28.6053 312.9097 28.6053 311.3677 28.9633 310.0547 29.6793 308.7427 30.3953 307.6517 31.3233 306.7827 32.4653 305.9137 33.6083 305.2577 34.9033 304.8147 36.3503 304.3717 37.8003 304.1497 39.2393 304.1497 40.6713 304.1497 42.2743 304.4057 43.8163 304.9177 45.2993 305.4297 46.7813 306.1517 48.0853 307.0897 49.2093 308.0267 50.3343 309.1517 51.2383 310.4647 51.9203 311.7757 52.6023 313.2177 52.9423 314.7847 52.9423 315.6027 52.9423 316.4557 52.8403 317.3407 52.6353 318.2277 52.4303 319.0707 52.1073 319.8727 51.6633 320.6737 51.2213 321.4147 50.6503 322.0957 49.9513 322.7777 49.2533 323.3227 48.4093 323.7327 47.4203L329.5107 50.7433C328.9287 52.1073 328.1027 53.3083 327.0297 54.3483 325.9567 55.3883 324.7467 56.2653 323.3997 56.9813 322.0537 57.6973 320.6127 58.2423 319.0797 58.6173 317.5457 58.9913 316.0457 59.1803 314.5807 59.1803 311.9897 59.1803 309.6217 58.6343 307.4727 57.5443 305.3267 56.4533 303.4757 55.0303 301.9267 53.2753 300.3747 51.5193 299.1657 49.5253 298.2967 47.2923 297.4277 45.0603 296.9917 42.7853 296.9917 40.4673M347.5571 52.8911C349.2271 52.8911 350.6331 52.5511 351.7761 51.8691 352.9161 51.1871 353.8371 50.3011 354.5361 49.2091 355.2351 48.1191 355.7291 46.8671 356.0191 45.4521 356.3081 44.0371 356.4531 42.5801 356.4531 41.0801L356.4531 22.5721 363.4581 22.5721 363.4581 41.0801C363.4581 43.5691 363.1601 45.9041 362.5631 48.0851 361.9661 50.2671 361.0291 52.1751 359.7511 53.8111 358.4731 55.4471 356.8281 56.7441 354.8171 57.6971 352.8061 58.6521 350.4031 59.1291 347.6081 59.1291 344.7111 59.1291 342.2471 58.6261 340.2201 57.6201 338.1921 56.6151 336.5461 55.2861 335.2861 53.6321 334.0251 51.9791 333.1131 50.0621 332.5511 47.8801 331.9891 45.7001 331.7071 43.4331 331.7071 41.0801L331.7071 22.5721 338.7621 22.5721 338.7621 41.0801C338.7621 42.6141 338.9081 44.0891 339.1981 45.5031 339.4871 46.9171 339.9811 48.1701 340.6801 49.2611 341.3781 50.3521 342.2911 51.2291 343.4151 51.8931 344.5401 52.5591 345.9211 52.8911 347.5571 52.8911M374.5522 40.5181L383.3982 40.5181C384.0442 40.5181 384.6512 40.3651 385.2122 40.0581 385.7752 39.7511 386.2612 39.3341 386.6702 38.8051 387.0782 38.2771 387.4032 37.6551 387.6422 36.9391 387.8792 36.2231 387.9992 35.4561 387.9992 34.6381 387.9992 33.7871 387.8632 33.0021 387.5902 32.2861 387.3172 31.5701 386.9512 30.9491 386.4912 30.4201 386.0312 29.8921 385.5022 29.4831 384.9062 29.1931 384.3092 28.9041 383.7042 28.7591 383.0912 28.7591L374.5522 28.7591 374.5522 40.5181zM367.4972 58.8731L367.4972 22.5721 383.5512 22.5721C385.2212 22.5721 386.7632 22.9221 388.1782 23.6201 389.5922 24.3191 390.8122 25.2391 391.8332 26.3811 392.8562 27.5231 393.6562 28.8191 394.2372 30.2671 394.8162 31.7161 395.1062 33.1731 395.1062 34.6381 395.1062 36.9901 394.5182 39.1301 393.3422 41.0551 392.1652 42.9811 390.5732 44.3711 388.5622 45.2221L396.8452 58.8731 388.9192 58.8731 381.5062 46.7051 374.5522 46.7051 374.5522 58.8731 367.4972 58.8731z" mask="url(#logo-desktop-b)"/>
    <polygon fill="#1D3765" points="398.43 58.873 405.486 58.873 405.486 22.572 398.43 22.572" mask="url(#logo-desktop-b)"/>
    <polygon fill="#1D3765" points="438.156 28.759 426.551 28.759 426.551 58.873 419.546 58.873 419.546 28.759 407.939 28.759 407.939 22.572 438.156 22.572" mask="url(#logo-desktop-b)"/>
    <polygon fill="#1D3765" points="446.745 22.572 455.693 40.057 464.794 22.572 472.411 22.572 459.221 46.193 459.221 58.873 452.216 58.873 452.216 46.091 439.076 22.572" mask="url(#logo-desktop-b)"/>
    <path fill="#1D3765" d="M487.6987,30.5991 C487.6987,30.9061 487.7497,31.2041 487.8507,31.4941 C487.9537,31.7841 488.1247,32.0991 488.3627,32.4401 C488.6007,32.7811 488.9157,33.1731 489.3087,33.6151 C489.7007,34.0591 490.2037,34.6041 490.8167,35.2511 C492.1117,34.3661 493.0997,33.5391 493.7817,32.7721 C494.4647,32.0051 494.8047,31.1611 494.8047,30.2411 C494.8047,29.3211 494.4887,28.5791 493.8587,28.0171 C493.2277,27.4541 492.4187,27.1741 491.4307,27.1741 C490.3397,27.1741 489.4437,27.5061 488.7467,28.1701 C488.0467,28.8351 487.6987,29.6451 487.6987,30.5991 Z M491.9927,54.0161 C494.1057,54.0161 496.0647,53.3181 497.8737,51.9201 L489.4877,43.0741 C488.2937,43.9271 487.3567,44.7961 486.6757,45.6821 C485.9927,46.5691 485.6527,47.5571 485.6527,48.6471 C485.6527,49.3631 485.8057,50.0541 486.1127,50.7181 C486.4197,51.3831 486.8537,51.9531 487.4177,52.4311 C487.9797,52.9091 488.6527,53.2921 489.4367,53.5811 C490.2197,53.8711 491.0717,54.0161 491.9927,54.0161 Z M504.4167,58.8731 L501.5527,55.8561 C500.0537,57.0161 498.4347,57.8941 496.6967,58.4901 C494.9587,59.0851 493.1697,59.3841 491.3287,59.3841 C489.4537,59.3841 487.7577,59.0941 486.2407,58.5151 C484.7237,57.9361 483.4367,57.1521 482.3807,56.1631 C481.3247,55.1751 480.5057,54.0241 479.9277,52.7121 C479.3467,51.4001 479.0577,50.0281 479.0577,48.5961 C479.0577,47.4721 479.2267,46.4321 479.5677,45.4771 C479.9097,44.5231 480.3777,43.6461 480.9747,42.8441 C481.5697,42.0441 482.2527,41.3031 483.0187,40.6201 C483.7867,39.9391 484.5947,39.3081 485.4487,38.7281 C483.9827,37.0921 482.9517,35.6861 482.3547,34.5111 C481.7587,33.3341 481.4607,32.0991 481.4607,30.8041 C481.4607,29.5091 481.7167,28.3241 482.2277,27.2501 C482.7377,26.1771 483.4367,25.2561 484.3237,24.4891 C485.2097,23.7231 486.2577,23.1341 487.4687,22.7251 C488.6777,22.3161 489.9997,22.1121 491.4307,22.1121 C492.6897,22.1121 493.9007,22.2831 495.0607,22.6231 C496.2197,22.9641 497.2417,23.4671 498.1287,24.1311 C499.0137,24.7961 499.7297,25.6321 500.2757,26.6371 C500.8207,27.6421 501.0937,28.8101 501.0937,30.1391 C501.0937,32.1161 500.5137,33.8461 499.3547,35.3281 C498.1967,36.8111 496.7137,38.2011 494.9067,39.4951 L501.8607,46.7561 C502.3727,45.6651 502.7717,44.4721 503.0607,43.1771 C503.3507,41.8821 503.4967,40.4851 503.4967,38.9841 L509.0697,38.9841 C509.0357,41.4051 508.7457,43.6031 508.2007,45.5791 C507.6547,47.5571 506.8877,49.3631 505.8997,50.9991 L513.4167,58.8731 L504.4167,58.8731 Z" mask="url(#logo-desktop-b)"/>
    <path fill="#C32033" d="M11.5937,67.4795 C11.5937,66.7855 11.6327,66.0655 11.6877,65.3335 L0.0627,65.3335 C0.0227,66.0525 -0.0003,66.7685 -0.0003,67.4795 C-0.0003,74.3455 2.2327,80.2375 5.8017,84.9325 L14.1407,76.5935 C12.5497,74.0125 11.5937,70.9505 11.5937,67.4795" mask="url(#logo-desktop-b)"/>
    <path fill="#CE8C2A" d="M29.0356,85.6729 C24.8486,85.2299 20.6746,83.4429 17.4576,80.5469 L9.2646,88.7399 C14.7176,93.8059 21.9186,96.8139 29.0356,97.3009 L29.0356,85.6729 Z" mask="url(#logo-desktop-b)"/>
    <path fill="#E42430" d="M50.7983,67.4795 C50.7983,70.1175 50.1183,73.2165 48.5843,76.1085 L57.0673,84.5905 C60.5293,79.7395 62.3913,73.8615 62.3913,67.4795 C62.3913,66.7535 62.3673,66.0395 62.3253,65.3335 L50.6963,65.3335 C50.7563,66.0385 50.7983,66.7495 50.7983,67.4795" mask="url(#logo-desktop-b)"/>
    <path fill="#259A47" d="M0.6646,60.1934 L12.4736,60.1934 C13.1446,57.1564 14.1986,53.8864 15.6266,50.4194 L6.8446,41.6374 C4.0626,47.5684 1.7486,53.9324 0.6646,60.1934" mask="url(#logo-desktop-b)"/>
    <path fill="#F49B29" d="M45.5151,80.3076 C42.8901,82.9716 39.1831,85.0026 34.1761,85.5996 L34.1761,97.2296 C40.8041,96.6066 47.2161,94.0196 52.1371,89.9126 C52.6811,89.4576 53.1981,88.9816 53.7021,88.4956 L45.5151,80.3076 Z" mask="url(#logo-desktop-b)"/>
    <path fill="#1D3765" d="M46.0313,51.9732 C47.5953,54.6542 48.8773,57.3502 49.7183,60.1932 L61.6483,60.1932 C60.3683,53.9362 57.5793,48.4972 54.4583,43.5462 L46.0313,51.9732 Z" mask="url(#logo-desktop-b)"/>
    <path fill="#01AED8" d="M24.4883,13.7002 C23.9153,14.3932 15.9563,24.1192 9.2643,36.7882 L17.8833,45.4062 C19.1613,42.7792 20.6233,40.0632 22.2763,37.2672 C25.1403,32.4242 28.0323,28.2512 30.1523,25.3582 C32.6513,32.2302 36.6993,38.0682 40.4353,43.4542 C41.3933,44.8362 42.3253,46.1842 43.2173,47.5172 L51.4303,39.3042 C42.1023,28.7812 36.2983,15.0642 35.8693,0.0002 L24.4883,13.7002 Z" mask="url(#logo-desktop-b)"/>
    <path fill="#017DBC" d="M30.5435,41.1768 C30.5265,41.1208 18.8705,56.6858 18.9955,67.1448 C19.0785,74.0748 25.3115,78.8528 31.1635,78.8528 C39.1275,78.8528 43.1315,73.1408 43.4255,67.1448 C43.8425,58.6458 32.9195,49.0978 30.5435,41.1768" mask="url(#logo-desktop-b)"/>
  </g>
</svg>
